<mxfile host="app.diagrams.net" agent="Mozilla/5.0 (Windows NT 10.0; Win64; x64) AppleWebKit/537.36 (KHTML, like Gecko) Chrome/136.0.0.0 Safari/537.36" version="27.0.5">
  <diagram name="Page-1" id="EyQmdwyl10eSHJLmVSC_">
    <mxGraphModel dx="1426" dy="743" grid="1" gridSize="10" guides="1" tooltips="1" connect="1" arrows="1" fold="1" page="1" pageScale="1" pageWidth="827" pageHeight="1169" math="0" shadow="0">
      <root>
        <mxCell id="0" />
        <mxCell id="1" parent="0" />
        <mxCell id="BoQlZMTvHuezDRmlGMIQ-6" style="edgeStyle=orthogonalEdgeStyle;rounded=0;orthogonalLoop=1;jettySize=auto;html=1;endArrow=none;startFill=1;startArrow=oval;dashed=1;" edge="1" parent="1">
          <mxGeometry relative="1" as="geometry">
            <mxPoint x="100" y="520" as="targetPoint" />
            <mxPoint x="99.5" y="205" as="sourcePoint" />
            <Array as="points">
              <mxPoint x="99.5" y="355" />
              <mxPoint x="99.5" y="355" />
            </Array>
          </mxGeometry>
        </mxCell>
        <mxCell id="BoQlZMTvHuezDRmlGMIQ-3" value="Form Responder" style="shape=umlActor;verticalLabelPosition=bottom;verticalAlign=top;html=1;" vertex="1" parent="1">
          <mxGeometry x="90" y="80" width="20" height="40" as="geometry" />
        </mxCell>
        <mxCell id="BoQlZMTvHuezDRmlGMIQ-7" value="TypeForm" style="shape=umlLifeline;perimeter=lifelinePerimeter;whiteSpace=wrap;html=1;container=1;dropTarget=0;collapsible=0;recursiveResize=0;outlineConnect=0;portConstraint=eastwest;newEdgeStyle={&quot;curved&quot;:0,&quot;rounded&quot;:0};" vertex="1" parent="1">
          <mxGeometry x="170" y="80" width="100" height="440" as="geometry" />
        </mxCell>
        <mxCell id="BoQlZMTvHuezDRmlGMIQ-8" value="Fir" style="shape=umlLifeline;perimeter=lifelinePerimeter;whiteSpace=wrap;html=1;container=1;dropTarget=0;collapsible=0;recursiveResize=0;outlineConnect=0;portConstraint=eastwest;newEdgeStyle={&quot;curved&quot;:0,&quot;rounded&quot;:0};" vertex="1" parent="1">
          <mxGeometry x="330" y="80" width="100" height="440" as="geometry" />
        </mxCell>
        <mxCell id="BoQlZMTvHuezDRmlGMIQ-14" value="" style="html=1;points=[[0,0,0,0,5],[0,1,0,0,-5],[1,0,0,0,5],[1,1,0,0,-5]];perimeter=orthogonalPerimeter;outlineConnect=0;targetShapes=umlLifeline;portConstraint=eastwest;newEdgeStyle={&quot;curved&quot;:0,&quot;rounded&quot;:0};" vertex="1" parent="BoQlZMTvHuezDRmlGMIQ-8">
          <mxGeometry x="45" y="150" width="10" height="250" as="geometry" />
        </mxCell>
        <mxCell id="BoQlZMTvHuezDRmlGMIQ-15" value="process_data()" style="html=1;align=left;spacingLeft=2;endArrow=block;rounded=0;edgeStyle=orthogonalEdgeStyle;curved=0;rounded=0;" edge="1" target="BoQlZMTvHuezDRmlGMIQ-14" parent="BoQlZMTvHuezDRmlGMIQ-8">
          <mxGeometry relative="1" as="geometry">
            <mxPoint x="50" y="190" as="sourcePoint" />
            <Array as="points">
              <mxPoint x="80" y="220" />
            </Array>
          </mxGeometry>
        </mxCell>
        <mxCell id="BoQlZMTvHuezDRmlGMIQ-10" value="Sequoia" style="shape=umlLifeline;perimeter=lifelinePerimeter;whiteSpace=wrap;html=1;container=1;dropTarget=0;collapsible=0;recursiveResize=0;outlineConnect=0;portConstraint=eastwest;newEdgeStyle={&quot;curved&quot;:0,&quot;rounded&quot;:0};" vertex="1" parent="1">
          <mxGeometry x="500" y="80" width="100" height="440" as="geometry" />
        </mxCell>
        <mxCell id="BoQlZMTvHuezDRmlGMIQ-11" value="submit_form()" style="html=1;verticalAlign=bottom;endArrow=block;curved=0;rounded=0;" edge="1" parent="1" target="BoQlZMTvHuezDRmlGMIQ-7">
          <mxGeometry width="80" relative="1" as="geometry">
            <mxPoint x="100" y="190" as="sourcePoint" />
            <mxPoint x="180" y="190" as="targetPoint" />
          </mxGeometry>
        </mxCell>
        <mxCell id="BoQlZMTvHuezDRmlGMIQ-12" value="response_to_webhook()" style="html=1;verticalAlign=bottom;endArrow=block;curved=0;rounded=0;" edge="1" parent="1" source="BoQlZMTvHuezDRmlGMIQ-18" target="BoQlZMTvHuezDRmlGMIQ-8">
          <mxGeometry width="80" relative="1" as="geometry">
            <mxPoint x="220" y="240" as="sourcePoint" />
            <mxPoint x="340" y="240" as="targetPoint" />
          </mxGeometry>
        </mxCell>
        <mxCell id="BoQlZMTvHuezDRmlGMIQ-13" value="save_processed_data()" style="html=1;verticalAlign=bottom;endArrow=block;curved=0;rounded=0;" edge="1" parent="1" source="BoQlZMTvHuezDRmlGMIQ-22">
          <mxGeometry x="1" y="-79" width="80" relative="1" as="geometry">
            <mxPoint x="380" y="339.5" as="sourcePoint" />
            <mxPoint x="549.5" y="339.5" as="targetPoint" />
            <mxPoint as="offset" />
          </mxGeometry>
        </mxCell>
        <mxCell id="BoQlZMTvHuezDRmlGMIQ-16" value="OK" style="html=1;verticalAlign=bottom;endArrow=none;curved=0;rounded=0;startArrow=classic;startFill=0;" edge="1" parent="1" source="BoQlZMTvHuezDRmlGMIQ-8">
          <mxGeometry width="80" relative="1" as="geometry">
            <mxPoint x="470" y="420" as="sourcePoint" />
            <mxPoint x="550" y="420" as="targetPoint" />
          </mxGeometry>
        </mxCell>
        <mxCell id="BoQlZMTvHuezDRmlGMIQ-17" value="OK" style="html=1;verticalAlign=bottom;endArrow=none;curved=0;rounded=0;startArrow=classic;startFill=0;" edge="1" parent="1" source="BoQlZMTvHuezDRmlGMIQ-20">
          <mxGeometry width="80" relative="1" as="geometry">
            <mxPoint x="230" y="460" as="sourcePoint" />
            <mxPoint x="380" y="460" as="targetPoint" />
          </mxGeometry>
        </mxCell>
        <mxCell id="BoQlZMTvHuezDRmlGMIQ-19" value="" style="html=1;verticalAlign=bottom;endArrow=block;curved=0;rounded=0;" edge="1" parent="1" target="BoQlZMTvHuezDRmlGMIQ-18">
          <mxGeometry width="80" relative="1" as="geometry">
            <mxPoint x="220" y="240" as="sourcePoint" />
            <mxPoint x="380" y="240" as="targetPoint" />
          </mxGeometry>
        </mxCell>
        <mxCell id="BoQlZMTvHuezDRmlGMIQ-18" value="" style="html=1;points=[[0,0,0,0,5],[0,1,0,0,-5],[1,0,0,0,5],[1,1,0,0,-5]];perimeter=orthogonalPerimeter;outlineConnect=0;targetShapes=umlLifeline;portConstraint=eastwest;newEdgeStyle={&quot;curved&quot;:0,&quot;rounded&quot;:0};" vertex="1" parent="1">
          <mxGeometry x="215" y="220" width="10" height="35" as="geometry" />
        </mxCell>
        <mxCell id="BoQlZMTvHuezDRmlGMIQ-21" value="" style="html=1;verticalAlign=bottom;endArrow=none;curved=0;rounded=0;startArrow=classic;startFill=0;" edge="1" parent="1" source="BoQlZMTvHuezDRmlGMIQ-7" target="BoQlZMTvHuezDRmlGMIQ-20">
          <mxGeometry width="80" relative="1" as="geometry">
            <mxPoint x="220" y="460" as="sourcePoint" />
            <mxPoint x="380" y="460" as="targetPoint" />
          </mxGeometry>
        </mxCell>
        <mxCell id="BoQlZMTvHuezDRmlGMIQ-20" value="" style="html=1;points=[[0,0,0,0,5],[0,1,0,0,-5],[1,0,0,0,5],[1,1,0,0,-5]];perimeter=orthogonalPerimeter;outlineConnect=0;targetShapes=umlLifeline;portConstraint=eastwest;newEdgeStyle={&quot;curved&quot;:0,&quot;rounded&quot;:0};" vertex="1" parent="1">
          <mxGeometry x="215" y="445" width="10" height="35" as="geometry" />
        </mxCell>
        <mxCell id="BoQlZMTvHuezDRmlGMIQ-23" value="" style="html=1;verticalAlign=bottom;endArrow=block;curved=0;rounded=0;" edge="1" parent="1" target="BoQlZMTvHuezDRmlGMIQ-22">
          <mxGeometry width="80" relative="1" as="geometry">
            <mxPoint x="380" y="339.5" as="sourcePoint" />
            <mxPoint x="549.5" y="339.5" as="targetPoint" />
          </mxGeometry>
        </mxCell>
        <mxCell id="BoQlZMTvHuezDRmlGMIQ-22" value="" style="html=1;points=[[0,0,0,0,5],[0,1,0,0,-5],[1,0,0,0,5],[1,1,0,0,-5]];perimeter=orthogonalPerimeter;outlineConnect=0;targetShapes=umlLifeline;portConstraint=eastwest;newEdgeStyle={&quot;curved&quot;:0,&quot;rounded&quot;:0};" vertex="1" parent="1">
          <mxGeometry x="545" y="322.5" width="10" height="107.5" as="geometry" />
        </mxCell>
        <mxCell id="BoQlZMTvHuezDRmlGMIQ-28" value="" style="edgeStyle=orthogonalEdgeStyle;rounded=0;orthogonalLoop=1;jettySize=auto;html=1;endArrow=none;startFill=1;startArrow=oval;dashed=1;" edge="1" parent="1" source="BoQlZMTvHuezDRmlGMIQ-3" target="BoQlZMTvHuezDRmlGMIQ-24">
          <mxGeometry relative="1" as="geometry">
            <mxPoint x="100" y="590" as="targetPoint" />
            <mxPoint x="100" y="120" as="sourcePoint" />
            <Array as="points">
              <mxPoint x="100" y="160" />
              <mxPoint x="100" y="160" />
            </Array>
          </mxGeometry>
        </mxCell>
        <mxCell id="BoQlZMTvHuezDRmlGMIQ-24" value="" style="html=1;points=[[0,0,0,0,5],[0,1,0,0,-5],[1,0,0,0,5],[1,1,0,0,-5]];perimeter=orthogonalPerimeter;outlineConnect=0;targetShapes=umlLifeline;portConstraint=eastwest;newEdgeStyle={&quot;curved&quot;:0,&quot;rounded&quot;:0};" vertex="1" parent="1">
          <mxGeometry x="95" y="170" width="10" height="35" as="geometry" />
        </mxCell>
      </root>
    </mxGraphModel>
  </diagram>
</mxfile>
